<svg width="24" height="24" viewBox="0 0 24 24" fill="none" xmlns="http://www.w3.org/2000/svg">
<path d="M2 12C2 8.22876 2 6.34315 3.17157 5.17157C4.34315 4 6.22876 4 10 4H14C17.7712 4 19.6569 4 20.8284 5.17157C22 6.34315 22 8.22876 22 12C22 15.7712 22 17.6569 20.8284 18.8284C19.6569 20 17.7712 20 14 20H10C6.22876 20 4.34315 20 3.17157 18.8284C2 17.6569 2 15.7712 2 12Z" stroke="white" strokeWidth="1.5"/>
<rect x="8" y="11" width="2" height="2" rx="1" fill="white"/>
<rect x="9" y="8" width="2" height="2" rx="1" fill="white"/>
<rect x="12" y="8" width="2" height="2" rx="1" fill="white"/>
<rect x="15" y="8" width="2" height="2" rx="1" fill="white"/>
<rect x="18" y="8" width="2" height="2" rx="1" fill="white"/>
<rect x="11" y="11" width="2" height="2" rx="1" fill="white"/>
<rect x="14" y="11" width="2" height="2" rx="1" fill="white"/>
<rect x="17" y="11" width="3" height="2" rx="1" fill="white"/>
<rect x="8" y="14" width="8" height="2" rx="1" fill="white"/>
<rect x="4" y="14" width="3" height="2" rx="1" fill="white"/>
<rect x="4" y="11" width="3" height="2" rx="1" fill="white"/>
<rect x="4" y="8" width="4" height="2" rx="1" fill="white"/>
<rect x="17" y="14" width="3" height="2" rx="1" fill="white"/>
</svg>
